<control> default_path=Mute\
<group>
<region> sample=2_F_m.wav pitch_keycenter=f2 hikey=f#2
<region> sample=2_A_m.wav pitch_keycenter=a2 lokey=g2 hikey=a#2
<region> sample=3_C_m.wav pitch_keycenter=c3 lokey=b2 hikey=c#3
<region> sample=3_E_m.wav pitch_keycenter=e3 lokey=d3 hikey=f3
<region> sample=3_G_m.wav pitch_keycenter=g3 lokey=f#3 hikey=g#3
<region> sample=3_Bb_m.wav pitch_keycenter=a#3 lokey=a3 hikey=a#3
<region> sample=4_C_m.wav pitch_keycenter=c4 lokey=b3 hikey=c4
<region> sample=4_D_m.wav pitch_keycenter=d4 lokey=c#4 hikey=d4
<region> sample=4_Eb_m.wav pitch_keycenter=d#4 lokey=d#4 hikey=d#4
<region> sample=4_F_m.wav pitch_keycenter=f4 lokey=e4 hikey=f4
<region> sample=4_G_m.wav pitch_keycenter=g4 lokey=f#4 hikey=a#4
<region> sample=5_C_m.wav pitch_keycenter=c5 lokey=b4 hikey=e5
<region> sample=5_G_m.wav pitch_keycenter=g#5 lokey=f5 hikey=g#5
<region> sample=5_B_m.wav pitch_keycenter=b5 lokey=a5